<?xml version="1.0" standalone="no"?>
<!DOCTYPE svg PUBLIC "-//W3C//DTD SVG 20010904//EN"
 "http://www.w3.org/TR/2001/REC-SVG-20010904/DTD/svg10.dtd">
<svg version="1.0" xmlns="http://www.w3.org/2000/svg"
 width="615.000000pt" height="615.000000pt" viewBox="0 0 615.000000 615.000000"
 preserveAspectRatio="xMidYMid meet">
<metadata>
Created by potrace 1.11, written by Peter Selinger 2001-2013
</metadata>
<g transform="translate(0.000000,615.000000) scale(0.100000,-0.100000)"
fill="#000000" stroke="none">
<path d="M2620 5454 c-565 -53 -1057 -266 -1457 -630 -267 -243 -474 -587
-563 -935 -70 -273 -66 -609 10 -903 31 -121 87 -285 102 -301 7 -7 8 -3 5 10
-13 45 -27 236 -27 371 0 548 183 1037 510 1364 206 207 397 300 752 367 136
25 576 26 700 0 254 -51 395 -115 511 -229 l78 -76 597 110 c328 60 603 112
611 114 18 6 -78 105 -209 216 -316 267 -701 441 -1110 503 -103 15 -421 27
-510 19z"/>
<path d="M1374 4438 c-286 -230 -491 -628 -555 -1078 -21 -143 -18 -488 5
-625 74 -450 341 -861 744 -1145 l93 -65 -66 -3 c-50 -2 -65 -6 -65 -18 0 -8
4 -12 10 -9 7 4 7 -3 0 -20 -13 -34 -13 -35 4 -35 20 0 29 -16 21 -41 -7 -19
-7 -20 -21 -2 -12 16 -13 15 -14 -19 l0 -38 160 0 160 0 -145 -216 c-80 -118
-143 -219 -141 -223 3 -4 32 -7 66 -6 48 1 65 6 87 26 20 18 25 20 20 7 -11
-30 7 -20 33 20 14 20 27 41 29 47 2 5 10 16 18 23 21 21 15 37 -7 17 -18 -16
-20 -16 -20 -2 0 10 4 17 9 17 5 0 23 23 40 50 17 28 37 50 46 50 21 0 57 42
51 62 -2 11 1 18 10 18 8 0 22 16 30 35 8 19 18 35 23 35 5 0 8 8 7 18 -1 13
6 17 28 15 16 -1 33 -6 38 -11 5 -5 9 -145 8 -311 l0 -301 215 0 215 0 0 95 0
95 -111 -1 c-61 0 -113 2 -115 4 -6 5 -7 137 -2 143 3 2 40 4 84 5 118 1 114
-2 114 86 0 73 1 75 23 70 12 -3 43 -9 70 -12 l47 -7 1 -57 c1 -31 1 -88 0
-126 -1 -86 26 -189 63 -238 39 -50 101 -78 199 -87 65 -6 87 -4 106 7 14 9
35 13 54 9 18 -4 36 -1 45 6 13 11 15 10 9 -5 -6 -15 -4 -16 13 -7 16 9 18 8
13 -6 -5 -14 -3 -14 14 -3 19 11 21 23 22 178 1 122 -2 167 -12 173 -9 6 -9
12 1 29 13 20 12 21 -15 15 -15 -3 -35 -1 -43 5 -12 8 -10 9 8 4 15 -4 22 -2
22 8 0 22 -10 26 -39 15 -14 -6 -36 -12 -48 -13 -11 -2 -30 -6 -42 -10 -12 -4
-21 -2 -21 4 0 6 7 11 15 11 8 0 15 7 15 15 0 8 5 15 10 15 6 0 10 10 10 23 0
22 0 22 23 -5 18 -21 29 -25 52 -21 17 3 33 11 37 17 5 7 8 4 8 -6 0 -31 19
-19 22 14 l3 32 103 17 c57 9 112 19 122 22 16 4 19 1 15 -16 -14 -62 -25
-159 -19 -169 4 -6 3 -8 -3 -5 -6 4 -13 -5 -16 -21 -23 -108 -40 -183 -53
-222 -24 -75 -21 -79 37 -76 28 2 56 9 62 15 7 7 13 6 21 -4 7 -9 20 -12 34
-9 24 7 30 30 10 37 -7 2 4 10 24 17 32 12 39 20 44 49 3 20 7 41 9 48 8 25
110 21 120 -6 4 -9 9 -38 12 -65 12 -105 7 -101 113 -103 51 -1 101 2 111 8
25 13 24 40 -1 46 -17 5 -18 7 -4 20 8 8 13 23 10 32 -3 9 -15 63 -26 121 -12
58 -28 116 -35 130 -7 14 -10 31 -8 38 3 7 0 18 -5 25 -5 7 -12 32 -15 57 -13
102 -20 136 -28 145 -4 6 -5 15 -1 20 10 14 162 79 168 72 3 -3 6 -140 6 -304
0 -164 3 -318 6 -343 l7 -45 105 -9 c122 -10 250 5 298 34 17 11 38 33 47 51
20 37 32 134 18 142 -6 4 -8 35 -6 72 2 36 0 65 -5 65 -5 0 -14 11 -20 24 -6
13 -21 27 -32 31 -21 7 -21 8 13 36 46 38 61 84 55 174 -8 127 -58 173 -200
184 l-77 6 87 54 c215 134 442 325 600 503 234 265 302 389 302 552 0 86 -23
143 -83 204 -58 60 -137 106 -243 141 -71 24 -239 61 -276 61 -4 0 -31 -48
-61 -107 -235 -470 -607 -781 -1097 -916 -608 -169 -1190 -8 -1631 450 -387
402 -599 977 -538 1463 22 182 79 349 164 484 29 47 52 86 50 86 -2 0 -38 -28
-81 -62z m2749 -3018 c8 -11 18 -17 23 -12 5 4 0 -4 -11 -17 -11 -13 -18 -33
-17 -44 3 -17 0 -16 -22 10 -14 17 -26 35 -26 39 0 5 5 2 10 -6 8 -13 12 -13
27 3 17 18 17 19 -1 33 -11 8 -15 14 -8 14 6 0 17 -9 25 -20z m-2436 -52 c-3
-8 -6 -5 -6 6 -1 11 2 17 5 13 3 -3 4 -12 1 -19z m2543 -8 c10 -5 26 -33 36
-61 11 -28 25 -54 32 -57 10 -3 10 -7 2 -12 -8 -5 -8 -13 1 -33 12 -26 7 -57
-10 -57 -16 0 -31 56 -18 69 7 7 7 14 2 20 -12 12 -59 -24 -51 -38 3 -5 -1
-11 -8 -14 -10 -4 -13 0 -11 14 4 22 -30 28 -38 7 -6 -15 -10 16 -7 47 2 16 0
17 -13 6 -12 -10 -17 -9 -24 2 -4 7 -17 17 -27 20 -26 10 -16 17 28 19 37 1
41 8 39 66 -1 14 41 16 67 2z m-596 -196 c10 -77 11 -111 3 -116 -13 -8 -52 6
-52 18 2 68 24 219 31 211 2 -2 10 -53 18 -113z m-1294 76 c21 -7 19 -8 -17
-9 -24 -1 -43 4 -43 9 0 12 24 12 60 0z m2000 -4 c0 -2 -7 -9 -15 -16 -13 -11
-14 -10 -9 4 5 14 24 23 24 12z m-1940 -16 c0 -5 -7 -7 -15 -4 -8 4 -15 8 -15
10 0 2 7 4 15 4 8 0 15 -4 15 -10z m260 -50 c0 -5 -2 -10 -4 -10 -3 0 -8 5
-11 10 -3 6 -1 10 4 10 6 0 11 -4 11 -10z m43 -10 c-3 -11 -7 -20 -8 -20 -1 0
-5 9 -8 20 -3 12 0 20 8 20 8 0 11 -8 8 -20z m57 6 c0 -2 -7 -6 -15 -10 -8 -3
-15 -1 -15 4 0 6 7 10 15 10 8 0 15 -2 15 -4z m180 -64 c0 -72 11 -98 45 -104
16 -2 21 -12 23 -43 4 -68 13 -106 23 -100 5 4 9 1 9 -4 0 -15 -16 -14 -52 5
-18 9 -42 14 -59 10 -16 -3 -31 -1 -34 4 -3 6 -18 11 -33 11 -15 1 -20 3 -11
6 14 3 16 15 12 71 -6 83 -9 95 -25 86 -7 -4 -5 2 5 13 11 13 17 36 17 66 l0
47 40 0 40 0 0 -68z m1350 20 c0 -4 -9 -8 -19 -8 -11 0 -17 4 -15 8 3 4 12 8
20 8 8 0 14 -4 14 -8z m-2133 -54 c-3 -7 -5 -2 -5 12 0 14 2 19 5 13 2 -7 2
-19 0 -25z m859 -15 c-10 -10 -19 5 -10 18 6 11 8 11 12 0 2 -7 1 -15 -2 -18z
m38 12 c-4 -8 -8 -15 -10 -15 -2 0 -4 7 -4 15 0 8 4 15 10 15 5 0 7 -7 4 -15z
m1316 11 c0 -3 -4 -8 -10 -11 -5 -3 -10 -1 -10 4 0 6 5 11 10 11 6 0 10 -2 10
-4z m-143 -24 c36 -23 45 -140 13 -172 -21 -21 -78 -30 -73 -11 1 4 -2 24 -6
44 -6 24 -5 37 2 40 7 2 11 23 10 47 -2 53 20 74 54 52z m-2526 -25 c-10 -9
-11 -8 -5 6 3 10 9 15 12 12 3 -3 0 -11 -7 -18z m1319 9 c0 -2 -7 -7 -16 -10
-8 -3 -12 -2 -9 4 6 10 25 14 25 6z m1097 -156 c-3 -11 2 -27 10 -35 13 -14
13 -18 -2 -41 -9 -14 -19 -23 -22 -20 -3 3 0 13 7 21 11 13 10 19 -4 33 -15
15 -18 15 -26 2 -5 -8 -10 -11 -10 -7 0 9 42 65 49 66 2 1 1 -8 -2 -19z
m-1344 -7 c-7 -2 -19 -2 -25 0 -7 3 -2 5 12 5 14 0 19 -2 13 -5z m647 -88 c0
-14 -2 -25 -4 -25 -2 0 -6 11 -8 25 -3 14 -1 25 3 25 5 0 9 -11 9 -25z m-298
-57 c-7 -7 -12 -8 -12 -2 0 14 12 26 19 19 2 -3 -1 -11 -7 -17z"/>
<path d="M4280 1181 c0 -5 5 -13 10 -16 6 -3 10 -2 10 4 0 5 -4 13 -10 16 -5
3 -10 2 -10 -4z"/>
<path d="M4530 4403 c-19 -1 -84 -8 -145 -13 -616 -60 -1531 -293 -2217 -566
-275 -109 -568 -256 -568 -284 0 -4 31 -29 70 -54 262 -173 707 -362 1284
-546 l209 -67 101 47 c307 144 602 231 887 261 140 15 420 6 543 -16 480 -88
657 -331 496 -685 -37 -81 -15 -53 52 64 164 290 300 695 344 1026 16 121 18
348 4 433 -45 277 -329 411 -863 405 -89 0 -178 -3 -197 -5z"/>
<path d="M465 1590 c-62 -8 -85 -18 -85 -36 0 -7 -6 -11 -12 -9 -19 7 -66 -37
-73 -68 -4 -15 -11 -25 -15 -22 -13 8 -32 -57 -20 -69 6 -6 12 -4 16 7 3 9 13
17 21 17 11 0 13 -7 9 -24 -3 -14 -2 -28 4 -31 16 -10 12 -28 -5 -21 -8 3 -15
1 -15 -4 0 -6 -11 -10 -23 -10 l-24 0 -1 -167 c-1 -267 18 -347 99 -416 42
-37 97 -54 178 -57 25 0 48 -3 53 -6 5 -3 19 1 32 9 25 17 118 19 108 3 -3 -5
2 -7 11 -3 10 3 17 2 17 -3 0 -6 8 -5 19 2 17 11 19 26 20 177 1 123 -2 167
-11 172 -11 7 -11 12 0 29 10 16 10 20 0 20 -7 0 -19 -4 -27 -9 -17 -11 -41 8
-34 26 3 7 0 13 -6 13 -6 0 -11 -5 -11 -11 0 -5 -5 -7 -12 -3 -8 5 -9 2 -5 -9
3 -9 2 -19 -2 -22 -5 -2 -11 4 -14 15 -4 17 -9 19 -32 10 -34 -13 -35 -13 -35
8 0 14 2 15 10 2 8 -13 11 -11 16 8 4 12 10 22 15 22 5 0 9 10 9 23 1 22 1 21
25 -5 15 -17 30 -26 39 -22 12 5 16 0 16 -20 0 -14 5 -26 11 -26 7 0 9 10 5
25 -4 14 -2 25 3 25 5 0 12 8 14 18 4 13 5 11 6 -5 2 -37 21 -26 21 12 l0 35
-85 2 c-47 1 -95 2 -107 2 -22 1 -23 -3 -24 -74 -2 -89 7 -117 38 -122 19 -2
23 -10 26 -43 4 -68 13 -106 23 -100 5 4 9 1 9 -4 0 -15 -16 -14 -52 5 -18 9
-42 14 -59 10 -16 -3 -31 -1 -34 4 -3 6 -18 11 -33 11 -15 1 -20 3 -11 6 14 3
15 15 11 76 -2 40 -9 78 -14 85 -7 8 -7 12 1 12 8 0 11 30 10 101 -2 89 -5
102 -23 115 l-21 16 21 -6 c19 -6 22 -1 28 35 10 64 33 97 63 91 15 -3 29 1
34 9 5 9 9 9 9 2 0 -16 90 -26 123 -14 27 10 27 12 27 101 l0 90 -76 0 c-67 0
-75 -2 -70 -17 6 -16 6 -16 -12 0 -19 18 -35 19 -117 7z m194 -46 c14 -12 -19
-1 -35 12 -18 14 -18 14 6 3 14 -6 27 -13 29 -15z m-189 -25 c22 -18 21 -18
-17 3 -23 12 -39 26 -37 30 3 4 10 3 17 -2 7 -6 23 -19 37 -31z m-100 -25 c0
-8 -4 -12 -10 -9 -5 3 -10 10 -10 16 0 5 5 9 10 9 6 0 10 -7 10 -16z m-8 -46
c-7 -7 -12 -8 -12 -2 0 14 12 26 19 19 2 -3 -1 -11 -7 -17z m-17 -38 c3 -5 1
-10 -4 -10 -6 0 -11 5 -11 10 0 6 2 10 4 10 3 0 8 -4 11 -10z m85 -60 c0 -5
-7 -7 -15 -4 -8 4 -15 8 -15 10 0 2 7 4 15 4 8 0 15 -4 15 -10z m-66 -35 c3
-8 1 -15 -4 -15 -6 0 -10 7 -10 15 0 8 2 15 4 15 2 0 6 -7 10 -15z m-92 -57
c-8 -8 -9 -4 -5 13 4 13 8 18 11 10 2 -7 -1 -18 -6 -23z m8 -59 c0 -22 -3 -38
-8 -36 -4 3 -6 20 -5 39 2 39 2 38 8 38 3 0 5 -18 5 -41z m41 -46 c-9 -16 -10
-16 -11 4 0 12 -3 30 -6 40 -5 13 -2 12 10 -4 13 -17 14 -27 7 -40z m69 13 c0
-2 -9 -6 -20 -9 -11 -3 -20 -1 -20 4 0 5 9 9 20 9 11 0 20 -2 20 -4z m247
-108 c-3 -8 -6 -5 -6 6 -1 11 2 17 5 13 3 -3 4 -12 1 -19z m3 -22 c0 -2 -7 -7
-16 -10 -8 -3 -12 -2 -9 4 6 10 25 14 25 6z m-237 -163 c-7 -2 -21 -2 -30 0
-10 3 -4 5 12 5 17 0 24 -2 18 -5z m-46 -105 c-3 -8 -6 -5 -6 6 -1 11 2 17 5
13 3 -3 4 -12 1 -19z m220 -24 c-3 -3 -12 -4 -19 -1 -8 3 -5 6 6 6 11 1 17 -2
13 -5z m164 -17 c-10 -9 -11 -8 -5 6 3 10 9 15 12 12 3 -3 0 -11 -7 -18z"/>
<path d="M4840 1583 l-55 -4 -3 -417 c-1 -229 1 -424 4 -434 5 -17 24 -18 235
-18 l229 0 0 39 c0 21 -3 66 -6 99 l-7 61 -115 0 c-63 0 -116 1 -117 3 -4 4
-8 94 -6 137 l1 34 88 -5 c48 -3 97 -1 110 3 21 8 23 13 20 85 -4 91 -16 107
-70 86 -21 -8 -34 -9 -36 -2 -2 5 -28 10 -58 10 -43 0 -54 3 -54 16 0 9 -10
18 -22 22 l-22 5 23 9 c15 5 21 13 17 24 -3 9 -3 26 0 40 6 24 8 24 124 24
l118 0 7 59 c4 33 4 73 0 89 -6 28 -9 29 -73 36 -67 6 -227 5 -332 -1z m-10
-83 c-8 -5 -19 -10 -25 -10 -5 0 -3 5 5 10 8 5 20 10 25 10 6 0 3 -5 -5 -10z
m47 -112 c-3 -8 -6 -5 -6 6 -1 11 2 17 5 13 3 -3 4 -12 1 -19z m-10 -290 c-3
-7 -5 -2 -5 12 0 14 2 19 5 13 2 -7 2 -19 0 -25z"/>
<path d="M5341 1284 c0 -168 3 -304 6 -301 2 3 17 1 32 -4 24 -8 26 -13 23
-49 -4 -41 -15 -52 -26 -25 -7 20 -26 19 -26 -1 0 -27 21 -58 30 -44 5 9 9 9
14 1 4 -6 2 -11 -4 -11 -21 0 1 -44 39 -78 48 -43 122 -64 234 -64 106 -1 137
10 189 71 63 74 68 108 68 479 l0 332 -110 0 -109 0 0 -294 c-1 -368 -11 -425
-75 -400 -10 4 -16 1 -16 -7 0 -26 -38 57 -45 99 -4 28 -11 40 -18 35 -9 -5
-9 -3 0 8 14 18 15 36 14 332 l0 227 -111 0 -110 0 1 -306z m476 234 c-3 -8
-6 -5 -6 6 -1 11 2 17 5 13 3 -3 4 -12 1 -19z m-404 -45 c-7 -2 -19 -2 -25 0
-7 3 -2 5 12 5 14 0 19 -2 13 -5z m72 -11 c-3 -3 -11 0 -18 7 -9 10 -8 11 6 5
10 -3 15 -9 12 -12z m307 -192 c-2 -16 -6 -30 -8 -30 -2 0 -4 14 -4 30 0 17 4
30 8 30 5 0 7 -13 4 -30z m45 -2 c-3 -7 -5 -2 -5 12 0 14 2 19 5 13 2 -7 2
-19 0 -25z m-390 -290 c-3 -8 -6 -5 -6 6 -1 11 2 17 5 13 3 -3 4 -12 1 -19z
m73 -22 c0 -2 -7 -7 -16 -10 -8 -3 -12 -2 -9 4 6 10 25 14 25 6z m-70 -62 c0
-2 -7 -4 -15 -4 -8 0 -15 4 -15 10 0 5 7 7 15 4 8 -4 15 -8 15 -10z m323 9
c-13 -2 -33 -2 -45 0 -13 2 -3 4 22 4 25 0 35 -2 23 -4z m-313 -93 c0 -5 -2
-10 -4 -10 -3 0 -8 5 -11 10 -3 6 -1 10 4 10 6 0 11 -4 11 -10z m115 -10 c-7
-11 -65 -43 -65 -36 0 4 62 45 68 46 2 0 0 -5 -3 -10z"/>
<path d="M960 1507 c0 -5 -4 -5 -10 -2 -7 4 -10 -132 -10 -399 l0 -406 95 0
95 0 0 63 c0 34 3 105 7 159 l6 96 32 6 c18 4 39 4 48 0 24 -9 37 -62 40 -160
2 -55 9 -103 20 -126 l16 -38 85 0 c48 0 86 2 86 5 0 3 -7 22 -15 42 -8 19
-15 43 -15 53 0 12 -6 17 -17 15 -10 -1 -17 -8 -15 -14 2 -12 -46 -5 -61 9
-13 11 4 40 23 40 10 0 21 6 23 13 3 6 6 2 6 -10 1 -24 8 -28 29 -15 15 10 10
189 -7 221 -7 11 -26 28 -44 38 -28 15 -29 18 -12 21 27 5 54 30 73 67 18 35
20 174 2 220 -18 47 -60 84 -114 100 -64 19 -256 21 -256 3 0 -10 -2 -10 -9 0
-9 14 -101 13 -101 -1z m161 -107 c6 0 2 -9 -11 -20 -16 -14 -21 -27 -17 -46
l5 -27 -29 31 c-16 17 -29 37 -29 44 0 9 3 9 10 -2 8 -13 11 -13 27 2 13 14
15 21 5 30 -7 7 -12 17 -12 23 1 5 9 0 19 -12 11 -13 25 -23 32 -23z m124
-108 c9 -26 18 -53 21 -59 2 -7 17 -13 34 -13 17 0 29 -4 26 -9 -3 -5 -16 -7
-28 -3 -19 5 -21 2 -15 -24 4 -24 2 -30 -12 -30 -10 0 -23 6 -30 13 -9 10 -9
13 3 13 21 0 28 16 13 28 -8 7 -19 5 -36 -10 -15 -11 -21 -22 -15 -26 6 -4 3
-14 -8 -24 -19 -19 -32 -10 -17 12 13 22 11 30 -9 30 -27 0 -34 -11 -19 -29
11 -14 10 -14 -6 -2 -10 8 -17 26 -17 40 3 40 1 44 -15 31 -12 -10 -16 -9 -21
3 -3 8 -15 18 -27 21 -29 7 -18 15 29 18 41 4 41 4 43 65 l1 32 44 -15 c38
-13 46 -21 61 -62z m52 -167 c-10 -7 -17 -23 -17 -36 0 -17 -3 -20 -9 -10 -5
7 -6 22 -4 32 3 11 0 19 -6 19 -7 0 -10 4 -7 9 3 4 18 6 32 3 24 -4 25 -6 11
-17z m-57 1 c0 -2 -7 -7 -16 -10 -8 -3 -12 -2 -9 4 6 10 25 14 25 6z m110 -86
c0 -5 -2 -10 -4 -10 -3 0 -8 5 -11 10 -3 6 -1 10 4 10 6 0 11 -4 11 -10z m-18
-220 c3 -19 0 -30 -8 -30 -16 0 -24 36 -11 49 15 15 14 15 19 -19z"/>
<path d="M1563 873 c-23 -4 -33 -23 -12 -23 7 0 5 -10 -5 -25 -19 -28 -18 -29
20 -15 18 7 30 7 39 0 9 -8 15 -8 18 0 3 6 4 5 3 -2 -2 -7 -13 -12 -26 -10
-16 1 -21 -2 -16 -13 3 -9 -3 -24 -14 -35 -15 -15 -20 -16 -20 -6 0 8 -4 18
-10 21 -6 4 -10 -10 -10 -34 l0 -41 245 0 245 0 -1 90 c-1 88 -2 90 -25 90
-18 0 -24 -6 -25 -22 l0 -23 -9 23 c-6 15 -18 22 -35 22 -23 0 -24 -2 -13 -20
11 -16 10 -23 -5 -37 -9 -10 -17 -12 -17 -6 0 7 5 15 10 18 17 10 11 25 -9 25
-11 0 -21 5 -23 11 -3 9 -10 9 -26 0 -19 -10 -32 -9 -70 3 -43 13 -156 18
-209 9z m297 -63 c-14 -4 -21 -8 -17 -9 5 -1 1 -8 -7 -17 -13 -12 -18 -13 -30
-2 -11 11 -10 15 13 25 14 6 35 11 46 11 16 0 15 -2 -5 -8z m124 -5 c3 -8 1
-15 -4 -15 -6 0 -10 7 -10 15 0 8 2 15 4 15 2 0 6 -7 10 -15z m-264 -24 c-20
-6 -24 -12 -22 -34 4 -32 -8 -35 -33 -7 -9 10 -27 18 -38 17 -11 -1 -22 4 -24
11 -4 9 5 11 30 7 20 -4 38 -1 42 5 3 5 21 10 38 9 30 -1 30 -1 7 -8z"/>
<path d="M4576 679 c-52 -41 -20 -129 47 -129 64 0 92 89 41 129 -15 12 -34
21 -44 21 -10 0 -29 -9 -44 -21z"/>
</g>
</svg>
